<svg xmlns="http://www.w3.org/2000/svg" viewBox="0 0 213 353.8" style="image-rendering:optimizeQuality;shape-rendering:geometricPrecision;text-rendering:geometricPrecision"><defs><style type="text/css">  
      .fil0 {fill:white}
      .fil1 {fill:white;fill-rule:nonzero}
    </style></defs><path class="fil0" d="M183 96c0 0-1 0-1 0l-63-64-63 64c0 0 0 0 0 0l0 55 32 0 6 0 8 0 0-59 34 0 0 59 8 0 6 0 33 0 0-55 0 0z"/><path class="fil0" d="M38 77l73-74c5-4 12-4 15 0l23 22 0-12c0-2 1-3 3-3l25 0c1 0 2 1 2 3l0 43 22 21c4 4 4 11 0 15l0 0c-5 4-11 4-15 0l-67-67-67 67c-4 4-11 4-14 0l0 0c-5-4-5-11 0-15l0 0zm88-74l0 0z"/><path class="fil1" d="M136 151c0 11-51 19-15 22 31 5 56 9 55 20 0 14-60 26-60 32l0 0c0 10 90 21 97 58l-145 0c-11-36-178-47 57-90 18-4-1-8-7-9-29-2-41-10-40-14 0-4 25-15 24-19l34 0z"/></svg>
 
